<svg viewBox="0 0 280.43 55.22" xmlns="http://www.w3.org/2000/svg"><g fill="none"><path d="m156.43 43.32c6.78 0 11.1-5.34 11.1-14.28 0-8.34-3.78-14.4-10.92-14.4s-11.16 6.18-11.16 14.52 4.02 14.16 10.98 14.16z"/><circle cx="136.01" cy="36.5" r="3"/><circle cx="52.6" cy="21.76" r="3"/><path d="m247.81 43.32c6.78 0 11.1-5.34 11.1-14.28 0-8.34-3.78-14.4-10.92-14.4s-11.16 6.18-11.16 14.52 4.02 14.16 10.98 14.16z"/><circle cx="195.89" cy="8" r="3"/><circle cx="4" cy="51.22" r="3"/><ellipse cx="276.55" cy="51.22" rx="2.88" ry="3"/></g><path d="m78.65 43.98h1.2v-40.8h13.74v-1.08h-28.56v1.08h13.62z"/><path d="m156.43 44.46c7.26 0 12.36-5.46 12.36-15.3 0-10.38-5.1-15.66-12.06-15.66-7.2 0-12.54 5.58-12.54 15.54 0 9.78 4.81 15.42 12.24 15.42zm.18-29.82c7.14 0 10.92 6.06 10.92 14.4 0 8.94-4.32 14.28-11.1 14.28-7 0-11-5.76-11-14.16s3.92-14.52 11.18-14.52z"/><path d="m176.41 44h1.2v-16.22c0-8 3.18-13.08 10.32-13.08 5.52 0 8.22 3.84 8.22 9.9v19.4h1.2v-19.52c0-8.4-4.68-10.92-9.36-10.92-6.78 0-9.48 4.08-10.44 7.86.06-2.82 0-5.82-.06-7.26h-1.14c0 1.2.06 4.74.06 7.32z"/><path d="m221.23 44h1.2v-15.62c0-7.92 4.26-13.26 10.5-13.62v-1.2c-4.32.06-8.94 3.3-10.56 9 0-5.76-.06-7.38-.12-8.46h-1.14c.06 2.22.12 3.78.12 10.26z"/><path d="m247.81 44.46c7.26 0 12.36-5.46 12.36-15.3 0-10.38-5.1-15.66-12.06-15.66-7.2 0-12.54 5.58-12.54 15.54 0 9.78 4.8 15.42 12.24 15.42zm.19-29.82c7.14 0 10.92 6.06 10.92 14.4 0 8.94-4.32 14.28-11.1 14.28-7 0-11-5.76-11-14.16s3.91-14.52 11.18-14.52z"/><path d="m267.79 0h1.2v43.98h-1.2z"/><path d="m4.61 47.28v-24.78c0-7.74.12-13.86-.18-19.44h.06c1.44 2.28 2.88 4.68 25.74 40.94h1.77v-41.9h-1.2v21.12c0 6.78 0 17.88.18 19.5h-.06c-1.59-2.4-3.09-4.92-25.71-40.62h-1.8v45.18a4 4 0 1 0 1.2 0zm-.61 6.94a3 3 0 1 1 3-3 3 3 0 0 1 -3 3z"/><path d="m61.22 42.9h-22.47v-20.58l9.9-.05a4 4 0 1 0 0-1.08h-9.9v-18.01h22v-1.08h-23.2v41.9h23.64zm-8.62-24.14a3 3 0 1 1 -3 3 3 3 0 0 1 3-3z"/><path d="m123.31 44.64c5.11 0 8.57-1.65 11-4.53a4 4 0 1 0 -2.31-3.61 4 4 0 0 0 1.25 2.9c-2.3 2.68-5.47 4.1-9.89 4.1-10.26 0-14.82-9.6-14.82-20.1 0-12 5.34-20.7 15.24-20.7 6.72 0 11.1 3.84 12.72 10h1.2c-1.26-6.42-5.82-11.16-14-11.16-11.22 0-16.44 10.2-16.44 21.9.03 11.18 4.74 21.2 16.05 21.2zm9.69-8.14a3 3 0 1 1 3 3 3 3 0 0 1 -3-3z"/><path d="m276.55 47.22a3.91 3.91 0 0 0 -3.83 3.5h-260.3v1h260.3a3.88 3.88 0 1 0 3.83-4.5zm0 7a3 3 0 1 1 2.88-3 2.95 2.95 0 0 1 -2.88 3z"/><path d="m195.89 12a4 4 0 0 0 2.24-.69l4.16 3.87h5.26v22.62c0 5.1 1.62 6.66 5.16 6.66a6.48 6.48 0 0 0 2.4-.36v-1.1a6.62 6.62 0 0 1 -2.34.36c-3.48 0-4.08-2.4-4.08-5.34v-22.84h7v-1.08h-7v-9h-1.14v9h-5.26l-3.5-3.37a3.93 3.93 0 0 0 1.1-2.73 4 4 0 1 0 -4 4zm0-7a3 3 0 1 1 -3 3 3 3 0 0 1 3-3z"/></svg>